# xmcd CD database file
#
# Track frame offsets:
#	150
#	51302
#	103350
#	139617
#	180265
#	233642
#	288815
#
# Disc length: 4382 seconds
#
# Revision: 0
# Processed by: cddbd v1.5.1PL0 Copyright (c) Steve Scherf et al.
# Submitted via: CDex 1.51
#
DISCID=5a111c07
DTITLE=Carl Fontana - Arno Marsh Quintet - Live At Capozzoli's
DYEAR=1997
DGENRE=Jazz
TTITLE0=Milestones
TTITLE1=Jitterbug Waltz
TTITLE2=Willow Weep For Me
TTITLE3=Disc Jockey Jump
TTITLE4=I Can't Get Started
TTITLE5=Perdido
TTITLE6=Apple Honey
EXTD=YEAR: 1997
EXTT0=
EXTT1=
EXTT2=
EXTT3=
EXTT4=
EXTT5=
EXTT6=
PLAYORDER=
